<?xml version="1.0" encoding="iso-8859-1"?>
<!-- Generator: Adobe Illustrator 25.4.1, SVG Export Plug-In . SVG Version: 6.00 Build 0)  -->
<svg version="1.1" xmlns="http://www.w3.org/2000/svg" xmlns:xlink="http://www.w3.org/1999/xlink" x="0px" y="0px"
	 viewBox="0 0 100 100" style="enable-background:new 0 0 100 100;" xml:space="preserve">
<g id="&#x421;&#x43B;&#x43E;&#x439;_1">
</g>
<g id="&#x421;&#x43B;&#x43E;&#x439;_2">
	<g>
		<g>
			<path style="opacity:0.35;" d="M90.519,66.544c-0.68-1.663-2.033-2.982-3.713-3.618c-3.908-1.482-6.504-5.003-6.775-9.188
				c-0.266-4.104,1.748-7.623,5.525-9.658c1.137-0.613,2.111-1.533,2.704-2.681c1.252-2.422,0.912-5.207-0.724-7.194
				c-5.004-6.082-11.394-9.627-18.142-10.116c3.641-5.097,5.234-11.059,4.375-16.589C73.274,4.313,70.567,2,67.33,2l-0.254,0.002
				l-0.166,0.011c-6.05,0.403-12.9,3.918-17.055,8.754c-3.607,4.221-5.652,9.26-5.825,14.067c-1.882-0.453-4.004-0.802-6.424-0.802
				c-8.373,0-16.785,4.836-21.95,12.617C7.947,48.23,9.819,67.12,20.212,82.59c2.687,3.988,8.98,13.328,18.966,13.41l0.11,0.001
				c3.696,0,6.312-0.889,8.225-1.72c1.697-0.737,2.922-1.269,5.305-1.281l0.122-0.001c2.283,0,3.385,0.245,5.056,0.993
				C59.891,94.839,62.487,96,66.217,96h0.118c8.622-0.065,14.527-7.131,19.165-14.035c1.947-2.897,2.77-5.004,3.566-7.041
				c0.377-0.965,0.767-1.963,1.337-3.198C91.155,70.097,91.197,68.21,90.519,66.544z"/>
			<path style="fill:#F2F2F2;" d="M88.519,64.544c-0.68-1.663-2.033-2.982-3.713-3.618c-3.908-1.482-6.504-5.003-6.775-9.188
				c-0.266-4.104,1.748-7.623,5.525-9.658c1.137-0.613,2.111-1.533,2.704-2.681c1.252-2.422,0.912-5.207-0.724-7.194
				c-5.004-6.082-11.394-9.627-18.142-10.116c3.641-5.097,5.234-11.059,4.375-16.589C71.274,2.313,68.567,0,65.33,0l-0.254,0.002
				l-0.166,0.011c-6.05,0.403-12.9,3.918-17.055,8.754c-3.607,4.221-5.652,9.26-5.825,14.067c-1.882-0.453-4.004-0.802-6.424-0.802
				c-8.373,0-16.785,4.836-21.95,12.617C5.947,46.23,7.819,65.12,18.212,80.59c2.687,3.988,8.98,13.328,18.966,13.41l0.11,0.001
				c3.696,0,6.312-0.889,8.225-1.72c1.697-0.737,2.922-1.269,5.305-1.281l0.122-0.001c2.283,0,3.385,0.493,5.056,1.24
				C57.891,93.087,60.487,94,64.217,94h0.118c8.622-0.065,14.527-7.131,19.165-14.035c1.947-2.897,2.77-5.004,3.566-7.041
				c0.377-0.965,0.767-1.963,1.337-3.198C89.155,68.097,89.197,66.21,88.519,64.544z"/>
		</g>
	</g>
	<g>
		<path style="fill:#D9EEFF;" d="M82.502,67.003c-1.853,4.009-2.02,5.8-4.397,9.337c-3.323,4.946-8.018,11.118-13.82,11.161
			c-5.158,0.039-6.491-3.045-13.493-2.991c-7,0.035-8.459,3.052-13.626,2.995c-5.798-0.048-10.242-5.61-13.567-10.543
			c-9.304-13.851-10.283-30.078-4.535-38.714c4.066-6.124,10.502-9.72,16.542-9.72c6.154,0,10.023,2.972,15.109,2.972
			c4.942,0,7.948-2.978,15.065-2.978c5.383,0,10.669,2.868,14.735,7.81C67.212,43.459,69.292,61.994,82.502,67.003z"/>
		<path style="fill:#D9EEFF;" d="M61.347,19.314c2.697-3.329,4.743-8.031,3.999-12.819c-4.397,0.291-9.543,2.994-12.548,6.492
			c-2.724,3.188-4.983,7.921-4.103,12.503C53.495,25.635,58.463,22.886,61.347,19.314z"/>
	</g>
	<g>
		<path style="fill:none;stroke:#40396E;stroke-width:3;stroke-linecap:round;stroke-linejoin:round;stroke-miterlimit:10;" d="
			M82.502,67.003c-1.853,4.009-2.02,5.8-4.397,9.337c-3.323,4.946-8.018,11.118-13.82,11.161c-5.158,0.039-6.491-3.045-13.493-2.991
			c-7,0.035-8.459,3.052-13.626,2.995c-5.798-0.048-10.242-5.61-13.567-10.543c-9.304-13.851-10.283-30.078-4.535-38.714
			c4.066-6.124,10.502-9.72,16.542-9.72c6.154,0,10.023,2.972,15.109,2.972c4.942,0,7.948-2.978,15.065-2.978
			c5.383,0,10.669,2.868,14.735,7.81C67.212,43.459,69.292,61.994,82.502,67.003z"/>
		<path style="fill:none;stroke:#40396E;stroke-width:3;stroke-linecap:round;stroke-linejoin:round;stroke-miterlimit:10;" d="
			M61.347,19.314c2.697-3.329,4.743-8.031,3.999-12.819c-4.397,0.291-9.543,2.994-12.548,6.492
			c-2.724,3.188-4.983,7.921-4.103,12.503C53.495,25.635,58.463,22.886,61.347,19.314z"/>
	</g>
</g>
</svg>